<svg width="126" height="40" viewBox="0 0 126 40" fill="none" xmlns="http://www.w3.org/2000/svg">
<g clip-path="url(#clip0_2202_13433)">
<path d="M33.751 11.25H6.25098C5.56062 11.25 5.00098 11.8097 5.00098 12.5V32.5C5.00098 33.1904 5.56062 33.75 6.25098 33.75H33.751C34.4413 33.75 35.001 33.1904 35.001 32.5V12.5C35.001 11.8097 34.4413 11.25 33.751 11.25Z" stroke="#0A65CC" stroke-width="2.5" stroke-linecap="round" stroke-linejoin="round"/>
<path d="M26.25 11.25V8.75C26.25 8.08696 25.9866 7.45107 25.5178 6.98223C25.0489 6.51339 24.413 6.25 23.75 6.25H16.25C15.587 6.25 14.9511 6.51339 14.4822 6.98223C14.0134 7.45107 13.75 8.08696 13.75 8.75V11.25" stroke="#0A65CC" stroke-width="2.5" stroke-linecap="round" stroke-linejoin="round"/>
<path d="M35.0012 19.7358C30.4423 22.3734 25.2669 23.7583 20 23.75C14.7339 23.7583 9.55935 22.3739 5.00098 19.7371" stroke="#0A65CC" stroke-width="2.5" stroke-linecap="round" stroke-linejoin="round"/>
<path d="M18.125 18.75H21.875" stroke="#0A65CC" stroke-width="2.5" stroke-linecap="round" stroke-linejoin="round"/>
</g>
<path d="M49.7216 11.5455H53.5909L58.7727 24.1932H58.9773L64.1591 11.5455H68.0284V29H64.9943V17.0085H64.8324L60.0085 28.9489H57.7415L52.9176 16.983H52.7557V29H49.7216V11.5455ZM73.2528 33.9091C72.8324 33.9091 72.4432 33.875 72.0852 33.8068C71.733 33.7443 71.4517 33.6705 71.2415 33.5852L71.9574 31.1818C72.4063 31.3125 72.8068 31.375 73.1591 31.3693C73.5114 31.3636 73.821 31.2528 74.0881 31.0369C74.3608 30.8267 74.5909 30.4744 74.7784 29.9801L75.0426 29.2727L70.2955 15.9091H73.5682L76.5852 25.7955H76.7216L79.7472 15.9091H83.0284L77.7869 30.5852C77.5426 31.2784 77.2188 31.8722 76.8153 32.3665C76.4119 32.8665 75.9176 33.2472 75.3324 33.5085C74.7528 33.7756 74.0597 33.9091 73.2528 33.9091ZM90.6861 11.5455H93.8224V23.8182C93.8168 24.9432 93.5781 25.9119 93.1065 26.7244C92.6349 27.5312 91.9759 28.1534 91.1293 28.5909C90.2884 29.0227 89.3082 29.2386 88.1889 29.2386C87.1662 29.2386 86.2457 29.0568 85.4276 28.6932C84.6151 28.3239 83.9702 27.7784 83.4929 27.0568C83.0156 26.3352 82.777 25.4375 82.777 24.3636H85.9219C85.9276 24.8352 86.0298 25.2415 86.2287 25.5824C86.4332 25.9233 86.7145 26.1847 87.0724 26.3665C87.4304 26.5483 87.8423 26.6392 88.3082 26.6392C88.8139 26.6392 89.2429 26.5341 89.5952 26.3239C89.9474 26.108 90.2145 25.7898 90.3963 25.3693C90.5838 24.9489 90.6804 24.4318 90.6861 23.8182V11.5455ZM102.827 29.2557C101.548 29.2557 100.44 28.9744 99.5028 28.4119C98.5653 27.8494 97.8381 27.0625 97.321 26.0511C96.8097 25.0398 96.554 23.858 96.554 22.5057C96.554 21.1534 96.8097 19.9687 97.321 18.9517C97.8381 17.9347 98.5653 17.1449 99.5028 16.5824C100.44 16.0199 101.548 15.7386 102.827 15.7386C104.105 15.7386 105.213 16.0199 106.151 16.5824C107.088 17.1449 107.813 17.9347 108.324 18.9517C108.841 19.9687 109.099 21.1534 109.099 22.5057C109.099 23.858 108.841 25.0398 108.324 26.0511C107.813 27.0625 107.088 27.8494 106.151 28.4119C105.213 28.9744 104.105 29.2557 102.827 29.2557ZM102.844 26.7841C103.537 26.7841 104.116 26.5937 104.582 26.2131C105.048 25.8267 105.395 25.3097 105.622 24.6619C105.855 24.0142 105.972 23.2926 105.972 22.4972C105.972 21.696 105.855 20.9716 105.622 20.3239C105.395 19.6705 105.048 19.1506 104.582 18.7642C104.116 18.3778 103.537 18.1847 102.844 18.1847C102.134 18.1847 101.543 18.3778 101.071 18.7642C100.605 19.1506 100.256 19.6705 100.023 20.3239C99.7955 20.9716 99.6818 21.696 99.6818 22.4972C99.6818 23.2926 99.7955 24.0142 100.023 24.6619C100.256 25.3097 100.605 25.8267 101.071 26.2131C101.543 26.5937 102.134 26.7841 102.844 26.7841ZM111.854 29V11.5455H114.94V18.0739H115.067C115.227 17.7557 115.451 17.4176 115.741 17.0597C116.031 16.696 116.423 16.3864 116.917 16.1307C117.411 15.8693 118.042 15.7386 118.809 15.7386C119.82 15.7386 120.732 15.9972 121.545 16.5142C122.363 17.0256 123.011 17.7841 123.488 18.7898C123.971 19.7898 124.212 21.017 124.212 22.4716C124.212 23.9091 123.977 25.1307 123.505 26.1364C123.033 27.142 122.391 27.9091 121.579 28.4375C120.766 28.9659 119.846 29.2301 118.817 29.2301C118.067 29.2301 117.445 29.1051 116.951 28.8551C116.457 28.6051 116.059 28.304 115.758 27.9517C115.462 27.5937 115.232 27.2557 115.067 26.9375H114.888V29H111.854ZM114.88 22.4545C114.88 23.3011 114.999 24.0426 115.238 24.679C115.482 25.3153 115.832 25.8125 116.286 26.1705C116.746 26.5227 117.303 26.6989 117.957 26.6989C118.638 26.6989 119.21 26.517 119.67 26.1534C120.13 25.7841 120.477 25.2812 120.71 24.6449C120.948 24.0028 121.067 23.2727 121.067 22.4545C121.067 21.642 120.951 20.9205 120.718 20.2898C120.485 19.6591 120.138 19.1648 119.678 18.8068C119.218 18.4489 118.644 18.2699 117.957 18.2699C117.298 18.2699 116.738 18.4432 116.278 18.7898C115.817 19.1364 115.468 19.6222 115.229 20.2472C114.996 20.8722 114.88 21.608 114.88 22.4545Z" fill="#18191C"/>
<defs>
<clipPath id="clip0_2202_13433">
<rect width="40" height="40" fill="white"/>
</clipPath>
</defs>
</svg>
